<?xml version="1.0" encoding="UTF-8"?>
<svg height="30" id="Layer_1" data-name="Layer 1"
  xmlns="http://www.w3.org/2000/svg" viewBox="0 0 323.42 240.23">
  <defs>
    <style>
      .cls-1 {
        fill: #fff;
        stroke-width: 0px;
      }
    </style>
  </defs>
  <path class="cls-1" d="M4.02,176.47c-.6-.26-.94-.86-.94-1.45l.09-9.07c0-1.03,1.03-1.54,1.97-1.11,4.36,1.97,9.07,3.34,14.03,3.34,8.64,0,14.11-3.76,14.11-12.57v-5.35c-3.42,4.02-8.04,5.09-13.86,5.09-13.6,0-19.42-8.9-19.42-23.44v-19.59c0-.94.77-1.71,1.71-1.71h9.32c.94,0,1.71.77,1.71,1.71v19.5c0,7.78,2.65,12.4,9.58,12.4,7.36,0,10.95-5.3,10.95-13.26v-18.65c0-.94.77-1.71,1.71-1.71h9.32c.94,0,1.71.77,1.71,1.71v43.88c-.09,14.88-10.52,23.09-26.6,23.09-6.24,0-11.38-1.11-15.4-2.82Z"/>
  <path class="cls-1" d="M49.23,133.53c0-14.71,8.64-24.29,22.41-24.29,5.99,0,11.03,2.48,14.03,6.42v-3.34c0-.94.77-1.71,1.71-1.71h9.24c.94,0,1.71.77,1.71,1.71v42.77c0,.94-.77,1.71-1.71,1.71h-9.24c-.94,0-1.71-.77-1.71-1.71v-3.51c-2.99,4.02-8.04,6.5-14.03,6.5-13.77,0-22.41-9.75-22.41-24.55ZM85.67,133.62c0-8.21-4.62-13.26-11.72-13.26s-11.98,5.05-11.98,13.26,4.7,13.34,11.98,13.34,11.72-5.13,11.72-13.34Z"/>
  <path class="cls-1" d="M114.47,151.58v3.51c0,.94-.77,1.71-1.71,1.71h-9.32c-.94,0-1.71-.77-1.71-1.71v-55.68c0-6.07,4.97-11.03,11.03-11.03h0c.94,0,1.71.77,1.71,1.71v25.58c2.91-3.94,8.04-6.42,13.94-6.42,13.77,0,22.41,9.58,22.41,24.29s-8.64,24.55-22.41,24.55c-5.9,0-10.95-2.48-13.94-6.5ZM138.16,133.62c0-8.21-4.7-13.26-11.97-13.26s-11.72,5.05-11.72,13.26,4.62,13.34,11.72,13.34,11.97-5.13,11.97-13.34Z"/>
  <path class="cls-1" d="M154.33,133.7c0-15.23,9.32-24.46,24.04-24.46,13.26,0,21.64,10.09,21.64,27.37,0,.94-.77,1.63-1.71,1.63h-30.79c.94,5.99,5.47,9.92,12.83,9.92,4.62,0,10.52-1.28,14.71-3.16.94-.43,1.97.09,1.97,1.11v7.78c0,.6-.34,1.2-.94,1.45-4.02,1.71-10.61,2.82-16.59,2.82-14.97,0-25.15-9.67-25.15-24.46ZM187.95,129.85c0-6.16-4.36-10.09-9.58-10.09-5.82,0-10.01,4.02-10.86,10.09h20.44Z"/>
  <path class="cls-1" d="M208.05,137.64v-17.02h-7.7c-.94,0-1.71-.77-1.71-1.71v-6.59c0-.94.77-1.71,1.71-1.71h7.7v-11.97c0-.94.77-1.71,1.71-1.71h9.24c.94,0,1.71.77,1.71,1.71v11.97h11.8c.94,0,1.71.77,1.71,1.71v6.59c0,.94-.77,1.71-1.71,1.71h-11.8v17.36c0,9.49,4.45,9.84,13.17,8.21,1.03-.17,2.05.43,2.05,1.45l.17,7.1c0,.6-.34,1.2-.94,1.45-2.82,1.2-6.24,1.97-10.01,1.97-11.38,0-17.11-6.84-17.11-20.53Z"/>
  <path class="cls-1" d="M298.7,109.41h-37.29c-14.88,0-24.72,9.58-24.72,24.29s9.84,24.55,24.72,24.55h37.29c14.88,0,24.72-9.75,24.72-24.55s-9.84-24.29-24.72-24.29ZM261.41,147.13c-7.27,0-11.98-5.3-11.98-13.34s4.7-13.26,11.98-13.26h37.29c7.27,0,11.97,5.22,11.97,13.26s-4.7,13.34-11.97,13.34h-37.29Z"/>
</svg>