<svg xmlns="http://www.w3.org/2000/svg" viewBox="0 0 860.1 115.88"><defs><style>.cls-1{fill:#ff5224;}.cls-2{fill:#3956ff;}.cls-3{fill:#d63313;}</style></defs><g id="Layer_2" data-name="Layer 2"><g id="Layer_1-2" data-name="Layer 1"><path class="cls-1" d="M52.46,38.08A87.54,87.54,0,0,0,35.2,68.91a38.11,38.11,0,0,1,9.87,19h1.22A72.63,72.63,0,0,1,63.12,48.37,73.56,73.56,0,0,0,52.46,38.08Zm42.77,64.67v-7.4a23.62,23.62,0,0,1,23.59-23.6h7.4V7.64h-7.4a87.27,87.27,0,0,0-55.7,20A88.76,88.76,0,0,1,73.76,38.08a72.45,72.45,0,0,1,37.67-15.27V57.67A38.36,38.36,0,0,0,91,68.91,87.25,87.25,0,0,1,95.1,95.35v7.39m-64,0h0"/><path class="cls-2" d="M7.39,7.64H0V71.75H7.39A23.63,23.63,0,0,1,31,95.35l2.41,7.39H31.12V95.35A87.56,87.56,0,0,1,35.2,68.91,38.29,38.29,0,0,0,14.79,57.67V22.81A72.42,72.42,0,0,1,52.46,38.08,88.18,88.18,0,0,1,63.12,27.66,87.37,87.37,0,0,0,7.39,7.64ZM81.15,88a38.35,38.35,0,0,1,9.87-19A87.54,87.54,0,0,0,73.76,38.08,72.91,72.91,0,0,0,63.12,48.37,72.61,72.61,0,0,1,79.93,88M46.29,88h0"/><path class="cls-3" d="M73.76,38.08A73.49,73.49,0,0,0,63.11,48.37,73,73,0,0,0,52.46,38.08,88.1,88.1,0,0,1,63.11,27.66,87.37,87.37,0,0,1,73.76,38.08Z"/><path class="cls-1" d="M46.29,88h0c-.42,4.57-.58,10.19-.63,14.78H31.12V95.35A87.56,87.56,0,0,1,35.2,68.91a38.11,38.11,0,0,1,9.87,19Z"/><path class="cls-2" d="M95.1,95.35v7.39H45.66c.05-4.59.21-10.21.63-14.78H81.15a38.35,38.35,0,0,1,9.87-19A87.25,87.25,0,0,1,95.1,95.35Z"/><rect x="360.55" y="4.82" width="39.48" height="10.06"/><path d="M210.87,25,170.2,115.88H152.93l16.36-36.7L145.21,25h17.27l15.45,36.58L193.49,25Z"/><path d="M271.81,25l-.11,62.49H255.45V79.07a23.21,23.21,0,0,1-19.54,9.77c-16.36,0-28.51-13.41-28.51-32.61s12.38-32.6,28.4-32.6a23.45,23.45,0,0,1,19.76,10.11V25ZM255.56,56.23c0-10.22-6.93-17.15-16-17.15s-15.8,6.93-15.8,17.15,6.82,17.16,15.8,17.16S255.56,66.57,255.56,56.23Z"/><path d="M344.3,56.23c0,19.2-12.27,32.61-28.52,32.61A23.63,23.63,0,0,1,296,79.07v8.41H279.77V11.7A10,10,0,0,1,287.47,2L296,0V33.74a23.61,23.61,0,0,1,19.76-10.11C331.8,23.63,344.3,36.92,344.3,56.23Zm-16.48,0c0-10.22-6.7-17.15-15.79-17.15S296,46,296,56.23,303,73.39,312,73.39,327.82,66.57,327.82,56.23Z"/><path d="M413,60.44H365.09c1,10,7.84,15,16.24,15,6.25,0,11.71-2.84,13.86-7.84H412c-4.66,14.77-17.16,21.25-30.56,21.25-19.54,0-32.95-13.86-32.95-32.49S362,23.63,381.11,23.63C401.78,23.63,414.62,39.88,413,60.44ZM365.88,48.51h29.88C394,41.69,388.83,37,381,37S367.93,41.81,365.88,48.51Z"/><path d="M465.67,83.84c-3.41,2.27-11.13,5-18.63,5-12.5,0-23.4-7.5-23.4-25.45V40.33H412.5V25h11.14V18.92a9.23,9.23,0,0,1,7.28-9l9-1.95V25h23.18V40.33H439.88V62.48c0,7.39,3.52,11.25,10,11.25,3.63,0,7.95-1.25,13.06-3.07Z"/><path d="M529.1,56.23c0,18.86-14.32,32.61-32.61,32.61S464,75,464,56.23s14.54-32.6,32.49-32.6S529.1,37.38,529.1,56.23Zm-48.74,0c0,10.34,7.05,17.16,16.13,17.16s16.14-6.82,16.14-17.16-7.05-17.15-16.14-17.15S480.36,46,480.36,56.23Z"/><path d="M598.09,56.23c0,18.86-14.32,32.61-32.61,32.61S533,75,533,56.23s14.54-32.6,32.49-32.6S598.09,37.38,598.09,56.23Zm-48.74,0c0,10.34,7,17.16,16.13,17.16s16.13-6.82,16.13-17.16-7-17.15-16.13-17.15S549.35,46,549.35,56.23Z"/><path class="cls-2" d="M645.4,88h-27V25.33h27a33.05,33.05,0,0,1,9.69,1.36,20.66,20.66,0,0,1,10.66,8,27.78,27.78,0,0,1,4.46,10.1,48.2,48.2,0,0,1,1.19,10.37q0,12.49-5,21.16Q659.6,87.94,645.4,88Zm9.73-46.65q-3-5.09-11.93-5.09H631.13V77.07H643.2q9.25,0,12.91-9.13a32.23,32.23,0,0,0,2-11.94Q658.11,46.45,655.13,41.3Z"/><path class="cls-2" d="M709,89.69q-13.43,0-20.52-7.31-9.53-9-9.52-25.82,0-17.22,9.52-25.83,7.09-7.31,20.52-7.31t20.51,7.31q9.48,8.62,9.48,25.83,0,16.86-9.48,25.82Q722.38,89.69,709,89.69Zm12.36-16.82q4.54-5.75,4.54-16.31t-4.56-16.3A15,15,0,0,0,709,34.51a15.13,15.13,0,0,0-12.41,5.73q-4.63,5.73-4.63,16.32t4.63,16.31a16.25,16.25,0,0,0,24.77,0Z"/><path class="cls-2" d="M793.11,83.27q-7,6.42-17.93,6.42-13.5,0-21.24-8.67t-7.73-23.87q0-16.4,8.79-25.28,7.65-7.73,19.46-7.73,15.81,0,23.11,10.37a22.44,22.44,0,0,1,4.33,11.68H788.82a17.73,17.73,0,0,0-3.27-6.8Q782,35.31,775,35.31a13.12,13.12,0,0,0-11.26,5.76q-4.11,5.76-4.12,16.29T764,73.14A13.75,13.75,0,0,0,775,78.39q6.88,0,10.5-4.5a19.68,19.68,0,0,0,3.31-7.27h13A28.19,28.19,0,0,1,793.11,83.27Z"/><path class="cls-2" d="M834.49,78.9a23,23,0,0,0,7.51-1q5.49-1.95,5.48-7.26a5.38,5.38,0,0,0-2.71-4.81,29.48,29.48,0,0,0-8.54-2.93L829.6,61.4q-9.76-2.2-13.51-4.8-6.33-4.34-6.33-13.55a18.1,18.1,0,0,1,6.12-14q6.12-5.57,18-5.57a27.27,27.27,0,0,1,16.88,5.25q7,5.25,7.33,15.23H845.49q-.35-5.65-4.93-8a16.49,16.49,0,0,0-7.6-1.57,14.24,14.24,0,0,0-8.08,2,6.49,6.49,0,0,0-3,5.69,5.38,5.38,0,0,0,3,5c1.28.74,4,1.6,8.16,2.6l10.79,2.59q7.1,1.69,10.7,4.54,5.61,4.42,5.61,12.79a18.05,18.05,0,0,1-6.56,14.25Q847,89.56,835,89.56q-12.22,0-19.24-5.58t-7-15.36h12.49A12.86,12.86,0,0,0,823.57,75Q826.75,78.9,834.49,78.9Z"/></g></g></svg>